<?xml version="1.0" standalone="no"?>
<!DOCTYPE svg PUBLIC "-//W3C//DTD SVG 20010904//EN"
 "http://www.w3.org/TR/2001/REC-SVG-20010904/DTD/svg10.dtd">
<svg version="1.0" xmlns="http://www.w3.org/2000/svg"
 width="512.000000pt" height="512.000000pt" viewBox="0 0 512.000000 512.000000"
 preserveAspectRatio="xMidYMid meet">
<metadata>
Created by potrace 1.16, written by Peter Selinger 2001-2019
</metadata>
<g transform="translate(0.000000,512.000000) scale(0.100000,-0.100000)"
fill="#000000" stroke="none">
<path d="M238 4970 c-20 -11 -45 -35 -57 -53 -21 -34 -21 -38 -21 -918 0 -858
1 -885 20 -913 65 -99 215 -99 280 0 19 28 20 53 20 689 l0 660 778 -777 c695
-694 782 -778 819 -788 77 -20 154 15 187 84 18 39 21 102 5 143 -5 16 -349
367 -777 796 l-767 767 641 0 641 0 43 23 c50 26 90 90 90 141 0 42 -38 115
-73 140 -28 21 -38 21 -910 23 -856 2 -883 2 -919 -17z"/>
<path d="M3075 4976 c-38 -17 -60 -41 -80 -89 -21 -50 -19 -86 8 -137 16 -30
37 -51 67 -67 l43 -23 641 0 641 0 -767 -767 c-428 -429 -772 -780 -777 -796
-26 -69 -3 -160 51 -200 36 -27 96 -38 143 -26 35 9 142 112 818 787 l777 777
0 -660 c0 -636 1 -661 20 -689 29 -44 87 -76 140 -76 53 0 111 32 140 76 19
28 20 55 20 914 0 859 -1 886 -20 914 -10 17 -36 40 -57 53 l-38 23 -870 0
c-700 -1 -876 -3 -900 -14z"/>
<path d="M2050 2295 c-22 -10 -322 -303 -802 -783 l-768 -767 0 655 c0 636 -1
656 -20 688 -30 48 -75 72 -140 72 -65 0 -110 -24 -140 -72 -19 -32 -20 -53
-20 -914 l0 -881 22 -33 c13 -18 36 -43 51 -54 28 -21 33 -21 901 -24 l872 -2
44 23 c50 26 90 90 90 141 0 42 -38 115 -73 140 -28 21 -42 21 -688 26 l-659
5 766 765 c421 421 772 777 780 792 35 66 9 161 -58 211 -35 26 -113 32 -158
12z"/>
<path d="M2940 2299 c-32 -13 -68 -47 -86 -81 -18 -35 -18 -112 0 -146 8 -15
359 -371 780 -792 l766 -765 -659 -5 c-646 -5 -660 -5 -688 -26 -35 -25 -73
-98 -73 -140 0 -51 40 -115 90 -141 l44 -23 872 2 c868 3 873 3 901 24 15 11
38 36 51 54 l22 33 0 881 c0 861 -1 882 -20 914 -30 48 -75 72 -140 72 -65 0
-110 -24 -140 -72 -19 -32 -20 -52 -20 -688 l0 -655 -767 767 c-539 538 -779
772 -805 783 -42 17 -91 19 -128 4z"/>
</g>
</svg>
