<svg width="1049" height="472" viewBox="0 0 1049 472" fill="none" xmlns="http://www.w3.org/2000/svg">
<g clip-path="url(#clip0_289_17)">
<path d="M14.66 466.35C21.11 436.17 31.01 406.76 44.55 379.01C51.2 365.38 58.47 351.76 67.02 339.22C73.64 329.52 83.85 318.04 96.03 315.85C106.87 313.9 113.42 322.85 119.03 330.6C124.64 338.35 131.08 347.31 141.13 349.93C154.85 353.51 168.05 344.17 177 334.66C185.87 325.24 192.14 313.81 197.66 302.21C207.96 280.55 217.73 252.79 241.62 242.52C259.49 234.84 275.11 245.26 286.54 258.45C309.11 284.5 330.15 331.42 372.98 317.56C396.64 309.9 411.32 288.11 432.52 276.36C443.42 270.32 455.6 269.29 465.72 277.29C474.71 284.38 480.43 295.19 485.19 305.36C494.83 325.98 502.78 350.97 524.69 362.03C535.75 367.61 548.36 367.77 559.51 362.3C570.59 356.87 578.64 346.43 584.8 336.05C597.56 314.55 605.53 290.35 622.44 271.41C630.94 261.89 641.13 254.48 653.33 250.49C666.7 246.12 680.8 244.83 694.42 241.47C708.04 238.11 720.15 232.51 730.38 223.14C739.92 214.41 747.11 203.26 753.24 191.98C759.44 180.57 764.79 168.71 770.93 157.26C777.86 144.33 785.43 131.73 793.6 119.54C809.91 95.19 828.68 72.53 849.49 51.89C859.71 41.76 870.28 31.15 882.39 23.27C893.07 16.32 905.94 11.76 918.08 17.85C930.22 23.94 937.52 35.64 943.18 47.17C949.78 60.61 953.95 75.08 958.89 89.17C968.04 115.25 981.2 141.72 1006.95 154.93C1018.4 160.8 1030.76 162.84 1043.41 160.32C1052.87 158.43 1048.86 143.97 1039.42 145.86C1013.07 151.12 991.38 126.44 981.28 105.13C968.71 78.61 964.57 47.84 946.72 23.89C938.91 13.41 928.43 4.01 915.36 1.02C901.05 -2.25 886.81 2.51 874.82 10.32C862.59 18.28 851.8 28.65 841.39 38.81C830.98 48.97 820.89 59.83 811.44 71.06C792.51 93.56 775.64 117.81 761.34 143.5C748.76 166.11 739.93 193.27 720.86 211.49C700.16 231.27 669.76 227.86 644.61 237.7C619.64 247.48 603.25 268.76 590.76 291.63C584.62 302.87 579.61 314.7 573.33 325.86C567.97 335.39 560.79 346.4 549.91 350.12C526.45 358.14 511.07 328.58 503.93 311.24C495.33 290.37 483.91 264.51 460.07 257.77C432.59 250.01 410.37 273.75 391.22 289.45C382.87 296.3 373.15 303.42 362.09 304.66C353.68 305.6 345.78 302.96 338.94 298.18C324.5 288.09 315.36 271.29 304.9 257.53C294.02 243.22 280.76 228.57 262.08 225.54C235.31 221.21 213.88 240.69 200.77 261.96C187.56 283.4 181.87 310.31 162.61 327.69C158.4 331.49 152.23 336.42 146.18 335.67C142.02 335.15 138.91 331.75 136.34 328.75C129.55 320.8 124.73 311.32 115.73 305.45C90.84 289.22 64.33 315.25 51.83 334.98C35.31 361.06 22.05 389.32 12.15 418.55C7.30001 432.89 3.33001 447.5 0.160011 462.3C-1.84999 471.71 12.61 475.74 14.62 466.29L14.66 466.35Z" fill="#0067FF"/>
</g>
<defs>
<clipPath id="clip0_289_17">
<rect width="1048.82" height="471.74" fill="white"/>
</clipPath>
</defs>
</svg>
