<svg width="958" height="301" viewBox="0 0 958 301" fill="none" xmlns="http://www.w3.org/2000/svg">
<g clip-path="url(#clip0_334_86)">
<path d="M-8.54707e-06 242.01L0.189991 285.01C0.209991 288.87 1.84999 292.88 4.57999 295.62C7.30999 298.36 11.45 300.18 15.19 300.01C18.93 299.84 23.09 298.56 25.8 295.62C28.51 292.68 30.21 289.07 30.19 285.01L30 242.01C29.98 238.15 28.34 234.14 25.61 231.4C22.88 228.66 18.74 226.84 15 227.01C11.26 227.18 7.09999 228.46 4.38999 231.4C1.67999 234.34 -0.0200085 237.95 -8.54707e-06 242.01Z" fill="#CCCCCC"/>
<path d="M45.07 232.01C45.13 249.73 45.2 267.45 45.26 285.18C45.27 289.03 46.92 293.06 49.65 295.79C52.38 298.52 56.52 300.35 60.26 300.18C64 300.01 68.16 298.73 70.87 295.79C73.58 292.85 75.28 289.24 75.26 285.18C75.2 267.46 75.13 249.74 75.07 232.01C75.06 228.16 73.41 224.13 70.68 221.4C67.95 218.67 63.81 216.84 60.07 217.01C56.33 217.18 52.17 218.46 49.46 221.4C46.75 224.34 45.05 227.95 45.07 232.01Z" fill="#CCCCCC"/>
<path d="M95.07 211.01C95.12 230.26 95.17 249.5 95.22 268.75L95.26 285.18C95.27 289.03 96.93 293.06 99.65 295.79C102.37 298.52 106.52 300.35 110.26 300.18C114 300.01 118.16 298.73 120.87 295.79C123.58 292.85 125.27 289.24 125.26 285.18C125.21 265.93 125.16 246.69 125.11 227.44L125.07 211.01C125.06 207.16 123.4 203.13 120.68 200.4C117.96 197.67 113.81 195.84 110.07 196.01C106.33 196.18 102.17 197.46 99.46 200.4C96.75 203.34 95.06 206.95 95.07 211.01Z" fill="#CCCCCC"/>
<path d="M145.17 199.01C145.2 221.42 145.22 243.84 145.25 266.25C145.25 272.56 145.26 278.87 145.27 285.18C145.27 289.03 146.94 293.06 149.66 295.79C152.38 298.52 156.53 300.35 160.27 300.18C164.01 300.01 168.17 298.73 170.88 295.79C173.59 292.85 175.28 289.25 175.27 285.18C175.24 262.77 175.22 240.35 175.19 217.94C175.19 211.63 175.18 205.32 175.17 199.01C175.17 195.16 173.5 191.13 170.78 188.4C168.06 185.67 163.91 183.84 160.17 184.01C156.43 184.18 152.27 185.46 149.56 188.4C146.85 191.34 145.16 194.94 145.17 199.01Z" fill="#CCCCCC"/>
<path d="M195.07 175.01C195.12 203.59 195.17 232.17 195.22 260.75C195.23 268.89 195.25 277.03 195.26 285.18C195.26 289.03 196.93 293.06 199.65 295.79C202.37 298.52 206.52 300.35 210.26 300.18C214 300.01 218.16 298.73 220.87 295.79C223.58 292.85 225.27 289.25 225.26 285.18C225.21 256.6 225.16 228.02 225.11 199.44C225.1 191.3 225.08 183.16 225.07 175.01C225.07 171.16 223.4 167.13 220.68 164.4C217.96 161.67 213.81 159.84 210.07 160.01C206.33 160.18 202.17 161.46 199.46 164.4C196.75 167.34 195.06 170.94 195.07 175.01Z" fill="#CCCCCC"/>
<path d="M245.07 144.01C245.1 162.38 245.12 180.76 245.15 199.13C245.18 217.5 245.2 235.71 245.23 254C245.24 264.39 245.26 274.78 245.27 285.18C245.27 289.03 246.94 293.06 249.66 295.79C252.38 298.52 256.53 300.35 260.27 300.18C264.01 300.01 268.17 298.73 270.88 295.79C273.59 292.85 275.28 289.25 275.27 285.18C275.24 266.81 275.22 248.43 275.19 230.06C275.16 211.69 275.14 193.48 275.11 175.19C275.1 164.8 275.08 154.41 275.07 144.01C275.07 140.16 273.4 136.13 270.68 133.4C267.96 130.67 263.81 128.84 260.07 129.01C256.33 129.18 252.17 130.46 249.46 133.4C246.75 136.34 245.06 139.94 245.07 144.01Z" fill="#CCCCCC"/>
<path d="M295.61 108.01C295.64 131.06 295.66 154.11 295.69 177.16C295.72 200.21 295.74 223.26 295.77 246.31C295.78 259.29 295.8 272.27 295.81 285.26C295.81 289.11 297.48 293.14 300.2 295.87C302.92 298.6 307.07 300.43 310.81 300.26C314.55 300.09 318.71 298.81 321.42 295.87C324.13 292.93 325.82 289.33 325.81 285.26C325.78 262.21 325.76 239.16 325.73 216.11C325.7 193.06 325.68 170.01 325.65 146.96C325.64 133.98 325.62 121 325.61 108.01C325.61 104.16 323.94 100.13 321.22 97.3999C318.5 94.6699 314.35 92.8399 310.61 93.0099C306.87 93.1799 302.71 94.4599 300 97.3999C297.29 100.34 295.6 103.94 295.61 108.01Z" fill="#CCCCCC"/>
<path d="M345.61 65.01C345.64 93.6399 345.66 122.28 345.69 150.91C345.72 179.54 345.74 208.18 345.77 236.81C345.78 252.96 345.8 269.11 345.81 285.26C345.81 289.11 347.48 293.14 350.2 295.87C352.92 298.6 357.07 300.43 360.81 300.26C364.55 300.09 368.71 298.81 371.42 295.87C374.13 292.93 375.82 289.33 375.81 285.26C375.78 256.63 375.76 227.99 375.73 199.36C375.7 170.73 375.68 142.09 375.65 113.46C375.64 97.3099 375.62 81.16 375.61 65.01C375.61 61.16 373.94 57.13 371.22 54.4C368.5 51.67 364.35 49.8399 360.61 50.0099C356.87 50.1799 352.71 51.4599 350 54.4C347.29 57.34 345.6 60.94 345.61 65.01Z" fill="#CCCCCC"/>
<path d="M395.7 45.01L395.74 138.91C395.75 170.13 395.77 201.35 395.78 232.56C395.78 250.13 395.79 267.69 395.8 285.26C395.8 289.11 397.47 293.15 400.19 295.87C402.91 298.59 407.06 300.43 410.8 300.26C414.54 300.09 418.7 298.81 421.41 295.87C424.12 292.93 425.81 289.33 425.8 285.26C425.79 253.96 425.77 222.66 425.76 191.36C425.75 160.14 425.73 128.92 425.72 97.71C425.72 80.14 425.71 62.58 425.7 45.01C425.7 41.16 424.03 37.12 421.31 34.4C418.59 31.68 414.44 29.84 410.7 30.01C406.96 30.18 402.8 31.46 400.09 34.4C397.38 37.34 395.69 40.94 395.7 45.01Z" fill="#CCCCCC"/>
<path d="M586.61 57.0099C586.64 86.8099 586.66 116.61 586.69 146.41C586.72 176.21 586.74 205.68 586.77 235.31C586.78 251.96 586.8 268.61 586.81 285.26C586.81 289.11 588.48 293.14 591.2 295.87C593.92 298.6 598.07 300.43 601.81 300.26C605.55 300.09 609.71 298.81 612.42 295.87C615.13 292.93 616.82 289.33 616.81 285.26C616.78 255.46 616.76 225.66 616.73 195.86C616.7 166.23 616.68 136.59 616.65 106.96C616.64 90.3099 616.62 73.6599 616.61 57.0099C616.61 53.1599 614.94 49.13 612.22 46.4C609.5 43.67 605.35 41.8399 601.61 42.0099C597.87 42.1799 593.71 43.4599 591 46.4C588.29 49.34 586.6 52.9399 586.61 57.0099Z" fill="#E6E6E6"/>
<path d="M636.61 87.0099C636.64 112.81 636.66 138.61 636.69 164.41C636.72 190.21 636.74 216.01 636.77 241.81C636.78 256.29 636.8 270.77 636.81 285.26C636.81 289.11 638.48 293.14 641.2 295.87C643.92 298.6 648.07 300.43 651.81 300.26C655.55 300.09 659.71 298.81 662.42 295.87C665.13 292.93 666.82 289.33 666.81 285.26C666.78 259.46 666.76 233.66 666.73 207.86C666.7 182.06 666.68 156.26 666.65 130.46C666.64 115.98 666.62 101.5 666.61 87.0099C666.61 83.1599 664.94 79.1299 662.22 76.3999C659.5 73.6699 655.35 71.8399 651.61 72.0099C647.87 72.1799 643.71 73.4599 641 76.3999C638.29 79.3399 636.6 82.9399 636.61 87.0099Z" fill="#E6E6E6"/>
<path d="M686.61 117.01C686.64 138.89 686.66 160.78 686.69 182.66C686.72 204.54 686.74 226.43 686.77 248.31C686.78 260.63 686.8 272.94 686.81 285.26C686.81 289.11 688.48 293.14 691.2 295.87C693.92 298.6 698.07 300.43 701.81 300.26C705.55 300.09 709.71 298.81 712.42 295.87C715.13 292.93 716.82 289.33 716.81 285.26C716.78 263.38 716.76 241.49 716.73 219.61C716.7 197.73 716.68 175.84 716.65 153.96C716.64 141.64 716.62 129.33 716.61 117.01C716.61 113.16 714.94 109.13 712.22 106.4C709.5 103.67 705.35 101.84 701.61 102.01C697.87 102.18 693.71 103.46 691 106.4C688.29 109.34 686.6 112.94 686.61 117.01Z" fill="#E6E6E6"/>
<path d="M736.61 145.01C736.64 163.23 736.66 181.45 736.69 199.66C736.72 217.88 736.74 236.1 736.77 254.31C736.78 264.62 736.8 274.94 736.81 285.25C736.81 289.1 738.48 293.13 741.2 295.86C743.92 298.59 748.07 300.42 751.81 300.25C755.55 300.08 759.71 298.8 762.42 295.86C765.13 292.92 766.82 289.32 766.81 285.25C766.78 267.03 766.76 248.81 766.73 230.6C766.7 212.38 766.68 194.16 766.65 175.95C766.64 165.64 766.62 155.32 766.61 145.01C766.61 141.16 764.94 137.13 762.22 134.4C759.5 131.67 755.35 129.84 751.61 130.01C747.87 130.18 743.71 131.46 741 134.4C738.29 137.34 736.6 140.94 736.61 145.01Z" fill="#E6E6E6"/>
<path d="M786.7 171.01C786.73 200.78 786.75 230.55 786.78 260.31C786.78 268.63 786.79 276.94 786.8 285.26C786.8 289.11 788.47 293.14 791.19 295.87C793.91 298.6 798.06 300.43 801.8 300.26C805.54 300.09 809.7 298.81 812.41 295.87C815.12 292.93 816.81 289.33 816.8 285.26C816.77 255.49 816.75 225.72 816.72 195.96C816.72 187.64 816.71 179.33 816.7 171.01C816.7 167.16 815.03 163.13 812.31 160.4C809.59 157.67 805.44 155.84 801.7 156.01C797.96 156.18 793.8 157.46 791.09 160.4C788.38 163.34 786.69 166.94 786.7 171.01Z" fill="#E6E6E6"/>
<path d="M836.61 192.01C836.66 216.28 836.71 240.55 836.76 264.81L836.8 285.26C836.8 289.11 838.47 293.14 841.19 295.87C843.91 298.6 848.06 300.43 851.8 300.26C855.54 300.09 859.7 298.81 862.41 295.87C865.12 292.93 866.81 289.32 866.8 285.26C866.75 260.99 866.7 236.72 866.65 212.46L866.61 192.01C866.61 188.16 864.94 184.13 862.22 181.4C859.5 178.67 855.35 176.84 851.61 177.01C847.87 177.18 843.71 178.46 841 181.4C838.29 184.34 836.6 187.95 836.61 192.01Z" fill="#E6E6E6"/>
<path d="M882.61 211.01C882.66 230.28 882.71 249.55 882.76 268.82C882.77 274.3 882.79 279.78 882.8 285.26C882.81 289.11 884.47 293.14 887.19 295.87C889.91 298.6 894.06 300.43 897.8 300.26C901.54 300.09 905.7 298.81 908.41 295.87C911.12 292.93 912.81 289.32 912.8 285.26C912.75 265.99 912.7 246.72 912.65 227.45C912.64 221.97 912.62 216.49 912.61 211.01C912.6 207.16 910.94 203.13 908.22 200.4C905.5 197.67 901.35 195.84 897.61 196.01C893.87 196.18 889.71 197.46 887 200.4C884.29 203.34 882.6 206.95 882.61 211.01Z" fill="#E6E6E6"/>
<path d="M927.61 228.01L927.8 285.26C927.81 289.11 929.46 293.14 932.19 295.87C934.92 298.6 939.06 300.43 942.8 300.26C946.54 300.09 950.7 298.81 953.41 295.87C956.12 292.93 957.82 289.32 957.8 285.26L957.61 228.01C957.6 224.16 955.95 220.13 953.22 217.4C950.49 214.67 946.35 212.84 942.61 213.01C938.87 213.18 934.71 214.46 932 217.4C929.29 220.34 927.59 223.95 927.61 228.01Z" fill="#E6E6E6"/>
<path d="M445.48 25.01C445.49 58.94 445.51 92.86 445.52 126.79C445.53 160.72 445.55 194.3 445.56 228.05C445.56 247.09 445.57 266.13 445.58 285.17C445.58 289.02 447.25 293.06 449.97 295.78C452.69 298.5 456.84 300.34 460.58 300.17C464.32 300 468.48 298.72 471.19 295.78C473.9 292.84 475.58 289.24 475.58 285.17C475.57 251.24 475.55 217.32 475.54 183.39C475.53 149.46 475.51 115.88 475.5 82.13C475.5 63.09 475.49 44.05 475.48 25.01C475.48 21.16 473.81 17.12 471.09 14.4C468.37 11.68 464.22 9.84002 460.48 10.01C456.74 10.18 452.58 11.46 449.87 14.4C447.16 17.34 445.48 20.94 445.48 25.01Z" fill="#CCCCCC"/>
<path d="M538.48 24.97C538.49 58.9 538.51 92.82 538.52 126.75C538.53 160.68 538.55 194.26 538.56 228.01C538.56 247.05 538.57 266.09 538.58 285.13C538.58 288.98 540.25 293.02 542.97 295.74C545.69 298.46 549.84 300.3 553.58 300.13C557.32 299.96 561.48 298.68 564.19 295.74C566.9 292.8 568.58 289.2 568.58 285.13C568.57 251.2 568.55 217.28 568.54 183.35C568.53 149.42 568.51 115.84 568.5 82.09C568.5 63.05 568.49 44.01 568.48 24.97C568.48 21.12 566.81 17.08 564.09 14.36C561.37 11.64 557.22 9.79998 553.48 9.96998C549.74 10.14 545.58 11.42 542.87 14.36C540.16 17.3 538.48 20.9 538.48 24.97Z" fill="#0064F1"/>
<path d="M492.48 15.01C492.49 50.24 492.51 85.46 492.52 120.69C492.53 155.92 492.55 190.78 492.56 225.83C492.56 245.6 492.57 265.37 492.58 285.14C492.58 288.99 494.25 293.03 496.97 295.75C499.69 298.47 503.84 300.31 507.58 300.14C511.32 299.97 515.48 298.69 518.19 295.75C520.9 292.81 522.58 289.21 522.58 285.14C522.57 249.91 522.55 214.69 522.54 179.46C522.53 144.23 522.51 109.37 522.5 74.32C522.5 54.55 522.49 34.78 522.48 15.01C522.48 11.16 520.81 7.12003 518.09 4.40003C515.37 1.68003 511.21 -0.159971 507.48 2.93562e-05C503.75 0.160029 499.58 1.45003 496.87 4.39003C494.16 7.33003 492.48 10.93 492.48 15V15.01Z" fill="#CCCCCC"/>
</g>
<defs>
<clipPath id="clip0_334_86">
<rect width="957.8" height="300.27" fill="white"/>
</clipPath>
</defs>
</svg>
