<?xml version="1.0" encoding="UTF-8"?>
<svg id="_Слой_2" data-name="Слой 2" xmlns="http://www.w3.org/2000/svg" viewBox="0 0 1048.82 471.74">
  <defs>
    <style>
      .cls-1 {
        fill: #0067ff;
        stroke-width: 0px;
      }
    </style>
  </defs>
  <g id="_Слой_1-2" data-name="Слой 1">
    <path class="cls-1" d="m14.66,466.35c6.45-30.18,16.35-59.59,29.89-87.34,6.65-13.63,13.92-27.25,22.47-39.79,6.62-9.7,16.83-21.18,29.01-23.37,10.84-1.95,17.39,7,23,14.75s12.05,16.71,22.1,19.33c13.72,3.58,26.92-5.76,35.87-15.27,8.87-9.42,15.14-20.85,20.66-32.45,10.3-21.66,20.07-49.42,43.96-59.69,17.87-7.68,33.49,2.74,44.92,15.93,22.57,26.05,43.61,72.97,86.44,59.11,23.66-7.66,38.34-29.45,59.54-41.2,10.9-6.04,23.08-7.07,33.2.93,8.99,7.09,14.71,17.9,19.47,28.07,9.64,20.62,17.59,45.61,39.5,56.67,11.06,5.58,23.67,5.74,34.82.27,11.08-5.43,19.13-15.87,25.29-26.25,12.76-21.5,20.73-45.7,37.64-64.64,8.5-9.52,18.69-16.93,30.89-20.92,13.37-4.37,27.47-5.66,41.09-9.02s25.73-8.96,35.96-18.33c9.54-8.73,16.73-19.88,22.86-31.16,6.2-11.41,11.55-23.27,17.69-34.72,6.93-12.93,14.5-25.53,22.67-37.72,16.31-24.35,35.08-47.01,55.89-67.65,10.22-10.13,20.79-20.74,32.9-28.62,10.68-6.95,23.55-11.51,35.69-5.42s19.44,17.79,25.1,29.32c6.6,13.44,10.77,27.91,15.71,42,9.15,26.08,22.31,52.55,48.06,65.76,11.45,5.87,23.81,7.91,36.46,5.39,9.46-1.89,5.45-16.35-3.99-14.46-26.35,5.26-48.04-19.42-58.14-40.73-12.57-26.52-16.71-57.29-34.56-81.24-7.81-10.48-18.29-19.88-31.36-22.87-14.31-3.27-28.55,1.49-40.54,9.3-12.23,7.96-23.02,18.33-33.43,28.49s-20.5,21.02-29.95,32.25c-18.93,22.5-35.8,46.75-50.1,72.44-12.58,22.61-21.41,49.77-40.48,67.99-20.7,19.78-51.1,16.37-76.25,26.21-24.97,9.78-41.36,31.06-53.85,53.93-6.14,11.24-11.15,23.07-17.43,34.23-5.36,9.53-12.54,20.54-23.42,24.26-23.46,8.02-38.84-21.54-45.98-38.88-8.6-20.87-20.02-46.73-43.86-53.47-27.48-7.76-49.7,15.98-68.85,31.68-8.35,6.85-18.07,13.97-29.13,15.21-8.41.94-16.31-1.7-23.15-6.48-14.44-10.09-23.58-26.89-34.04-40.65-10.88-14.31-24.14-28.96-42.82-31.99-26.77-4.33-48.2,15.15-61.31,36.42-13.21,21.44-18.9,48.35-38.16,65.73-4.21,3.8-10.38,8.73-16.43,7.98-4.16-.52-7.27-3.92-9.84-6.92-6.79-7.95-11.61-17.43-20.61-23.3-24.89-16.23-51.4,9.8-63.9,29.53-16.52,26.08-29.78,54.34-39.68,83.57-4.85,14.34-8.82,28.95-11.99,43.75-2.01,9.41,12.45,13.44,14.46,3.99h0Z"/>
  </g>
</svg>